<?xml version="1.0" encoding="UTF-8"?>
<svg id="Layer_1" data-name="Layer 1" xmlns="http://www.w3.org/2000/svg" xmlns:xlink="http://www.w3.org/1999/xlink" viewBox="0 0 1156 1059.46">
  <defs>
    <linearGradient id="linear-gradient" x1="359.15" y1="423.61" x2="275.15" y2="737.61" gradientUnits="userSpaceOnUse">
      <stop offset="0" stop-color="#231f20"/>
      <stop offset="1" stop-color="#fff"/>
    </linearGradient>
    <radialGradient id="radial-gradient" cx="930.41" cy="585.55" fx="930.41" fy="585.55" r="493.45" gradientUnits="userSpaceOnUse">
      <stop offset="0" stop-color="#fff"/>
      <stop offset="1" stop-color="#231f20"/>
    </radialGradient>
    <radialGradient id="radial-gradient-2" cx="788" cy="-36.27" fx="788" fy="-36.27" r="749.89" gradientUnits="userSpaceOnUse">
      <stop offset="0" stop-color="#fff"/>
      <stop offset="1" stop-color="#231f20"/>
    </radialGradient>
    <radialGradient id="radial-gradient-3" cx="382.7" cy="1018.49" fx="382.7" fy="1018.49" r="603.84" xlink:href="#radial-gradient"/>
    <radialGradient id="radial-gradient-4" cx="368.44" cy="518.91" fx="368.44" fy="518.91" r="695.41" xlink:href="#radial-gradient"/>
  </defs>
  <path d="M326.95,516.77c-3.29-6.23-5.16-9.78-5.16-9.78-6.97-13.22-13.17-26.89-20.05-40.16l-32.23,226.12c-1.76,9.5-6.25,16.97-13.45,22.42-7.22,5.46-15.4,8.19-24.54,8.19h-8.45v5.28h110.31v-4.75h-8.44c-3.53,0-6.87-1.06-10.04-3.17-8.1-4.93-11.6-11.44-10.56-19.54l22.61-184.6Z" style="fill: url(#linear-gradient); stroke-width: 0px;"/>
  <path d="M1057.3,782.65c-14.08-7.04-27.89-16.02-41.44-26.92-13.55-10.91-25.86-22.42-36.94-34.57-11.09-12.14-21.2-24.01-30.35-35.62-9.16-11.62-17.94-22.78-26.39-33.52-8.45-10.73-15.23-19.34-20.33-25.86-5.1-6.51-11.26-13.98-18.46-22.43-7.22-8.45-15.67-17.41-25.34-26.91-9.68-9.51-21.72-18.13-36.15-25.86,2.46.35,4.75.52,6.86.52,24.63,0,46.54-9.24,65.71-27.7,19.17-18.48,28.77-42.49,28.77-72.05s-9.86-52.42-29.56-68.61c-24.98-20.76-60.17-31.14-105.56-31.14h-83.3l4.11,23.22h58.08c2.46,0,4.88.1,7.26.32,16.62,1.47,31.09,8.15,43.42,19.99,14.06,13.56,21.1,32.82,21.1,57.79,0,34.14-11.44,57.53-34.3,70.2-15.14,8.1-31.67,12.15-49.61,12.15h-10.56v5.27c7.39,1.77,17.23,12.33,29.55,31.67,7.04,9.86,22.52,32.73,46.46,68.62,23.92,35.89,40.27,60.16,49.08,72.84.13.2.26.4.39.6,40.62,61.71,108.45,100.53,182.25,104.15,58.55,2.88,103.96-12.92,103.96-12.92-35.89-.35-68.8-8.1-98.7-23.22Z" style="fill: url(#radial-gradient); stroke-width: 0px;"/>
  <path d="M577.98,19.52c281.78,0,510.2,228.43,510.2,510.2,0,71.72-14.83,139.97-41.54,201.9,5.47,4.06,10.99,7.74,16.52,11.04,28.64-65.16,44.54-137.19,44.54-212.94C1107.7,237.17,870.54,0,577.98,0,372.14,0,193.72,117.4,106.03,288.9c9.84-5.59,19.87-10.37,30.05-14.34C224.31,122.1,389.16,19.52,577.98,19.52Z" style="fill: url(#radial-gradient-2); stroke-width: 0px;"/>
  <path d="M577.98,1039.93c-281.46,0-509.02-226.56-510.2-508.02-.11-27.06,1.88-53.63,5.83-79.56-.1.13-.2.25-.3.38-16.28,20.85-24.86,46.69-25.05,73.15,0,1.28-.01,2.56-.01,3.84,0,292.56,237.17,529.73,529.73,529.73,172.47,0,325.69-82.43,422.42-210.04-6.83-1.65-13.59-3.55-20.24-5.72-93.38,119.45-238.8,196.24-402.17,196.24Z" style="fill: url(#radial-gradient-3); stroke-width: 0px;"/>
  <path d="M146.28,359.41c18.7-6.29,38.66-10.4,58.47-9.18,6.22.38,16.66,1.31,29.35,7.15,33.42,15.38,54.33,53.26,71.4,84,8.85,15.94,16.19,32.74,24.69,48.87,0,0,125.86,238.57,125.86,238.57l5.58,10.56h4.75c.06-3.41.4-6.93,1.01-10.56,2.38-14.33,8.9-30.34,19.57-48.04l99.22-172.06,25.99,154.23v.08s6.57,38.89,6.57,38.89c1.85,10.99-6.62,21.01-17.76,21.01v6.5h135.9v-6.5c-13.77,0-25.88-9.14-29.62-22.39-3.38-11.95-6.26-24.69-8.65-38.23l-54.89-310.35h-4.75l-153.06,263.38c-20-37.5-40-75-60-112.5-33.13-62.11-71.83-125.45-128.68-172.78-63.25-52.66-167.63-43.95-248.75,59.7C17.27,429.62-3.58,486.09.51,529.26c22.43-119.82,105.91-156.43,145.77-169.85Z" style="fill: url(#radial-gradient-4); stroke-width: 0px;"/>
</svg>